<svg width="30" height="18" viewBox="0 0 30 18" fill="none" xmlns="http://www.w3.org/2000/svg">
<path fill-rule="evenodd" clip-rule="evenodd" d="M2.25065 3.33333H27.7507C28.5331 3.33333 29.1673 2.69907 29.1673 1.91666C29.1673 1.13426 28.5331 0.5 27.7507 0.5H2.25065C1.46825 0.5 0.833984 1.13426 0.833984 1.91666C0.833984 2.69907 1.46825 3.33333 2.25065 3.33333ZM27.7507 14.6663H2.25073C1.46833 14.6663 0.834066 15.3006 0.834066 16.083C0.834066 16.8654 1.46833 17.4997 2.25073 17.4997H27.7507C28.5331 17.4997 29.1674 16.8654 29.1674 16.083C29.1674 15.3006 28.5331 14.6663 27.7507 14.6663ZM27.7507 7.58368H2.25073C1.46833 7.58368 0.834066 8.21794 0.834066 9.00035C0.834066 9.78275 1.46833 10.417 2.25073 10.417H27.7507C28.5331 10.417 29.1674 9.78275 29.1674 9.00035C29.1674 8.21794 28.5331 7.58368 27.7507 7.58368Z" fill="#272525"/>
</svg>
