<svg width="25" height="25" viewBox="0 0 25 25" fill="none" xmlns="http://www.w3.org/2000/svg">
<g clip-path="url(#clip0_1_454)">
<path d="M24.0755 12.038C24.0755 5.38972 18.686 0.000244141 12.0377 0.000244141C5.38947 0.000244141 0 5.38972 0 12.038C0 18.0463 4.402 23.0264 10.1568 23.9295V15.5176H7.10038V12.038H10.1568V9.38592C10.1568 6.36896 11.954 4.70249 14.7037 4.70249C16.0203 4.70249 17.3983 4.9376 17.3983 4.9376V7.90001H15.8804C14.3851 7.90001 13.9186 8.828 13.9186 9.78091V12.038H17.2572L16.7235 15.5176H13.9186V23.9295C19.6735 23.0264 24.0755 18.0463 24.0755 12.038Z" fill="#1877F2"/>
<path d="M16.7227 15.5177L17.2564 12.038H13.9179V9.78093C13.9179 8.82897 14.3843 7.90004 15.8796 7.90004H17.3975V4.93763C17.3975 4.93763 16.02 4.70251 14.7029 4.70251C11.9533 4.70251 10.1561 6.36899 10.1561 9.38595V12.038H7.09961V15.5177H10.1561V23.9295C11.4024 24.1245 12.6715 24.1245 13.9179 23.9295V15.5177H16.7227Z" fill="white"/>
</g>
<defs>
<clipPath id="clip0_1_454">
<rect width="24.0755" height="24.0755" fill="white" transform="translate(0 0.000244141)"/>
</clipPath>
</defs>
</svg>
