<svg width="22" height="14" viewBox="0 0 22 14" fill="none" xmlns="http://www.w3.org/2000/svg">
<path fill-rule="evenodd" clip-rule="evenodd" d="M9.51644 13.375L0.620606 4.41522C0.223415 4.01844 3.19381e-08 3.47832 2.52191e-08 2.91488C1.85e-08 2.35143 0.223415 1.81132 0.620606 1.41454C1.43893 0.595219 2.76056 0.595219 3.57889 1.41454L11.0061 8.8951L18.4332 1.41454C19.2516 0.595219 20.5732 0.595219 21.3915 1.41454C21.7843 1.81333 22.0032 2.35319 22 2.91488C22.0032 3.47656 21.7843 4.01642 21.3915 4.41521L12.4957 13.375C12.1018 13.775 11.5655 14 11.0061 14C10.4466 14 9.91038 13.775 9.51644 13.375Z" fill="#7981AD"/>
</svg>
