<svg width="22" height="14" viewBox="0 0 22 14" fill="none" xmlns="http://www.w3.org/2000/svg">
<path fill-rule="evenodd" clip-rule="evenodd" d="M9.51644 1.42507L0.620606 10.3848C0.223415 10.7816 3.19381e-08 11.3217 2.52191e-08 11.8852C1.85e-08 12.4486 0.223415 12.9887 0.620606 13.3855C1.43893 14.2048 2.76056 14.2048 3.57889 13.3855L11.0061 5.90495L18.4332 13.3855C19.2516 14.2048 20.5732 14.2048 21.3915 13.3855C21.7843 12.9867 22.0032 12.4469 22 11.8852C22.0032 11.3235 21.7843 10.7836 21.3915 10.3848L12.4957 1.42507C12.1018 1.02502 11.5655 0.799999 11.0061 0.799999C10.4466 0.799999 9.91038 1.02502 9.51644 1.42507Z" fill="#7981AD"/>
</svg>
