<svg width="38" height="39" viewBox="0 0 38 39" fill="none" xmlns="http://www.w3.org/2000/svg">
<path fill-rule="evenodd" clip-rule="evenodd" d="M26.0922 12.6434C25.7456 12.2939 25.2737 12.0973 24.7814 12.0973C24.2892 12.0973 23.8173 12.2939 23.4707 12.6434L19.243 16.8895L15.0153 12.6434C14.2914 11.9195 13.1177 11.9195 12.3937 12.6434C11.6698 13.3673 11.6698 14.541 12.3937 15.2649L16.6399 19.4926L12.3937 23.7203C12.0442 24.0669 11.8477 24.5388 11.8477 25.0311C11.8477 25.5233 12.0442 25.9952 12.3937 26.3418C12.7404 26.6913 13.2123 26.8879 13.7045 26.8879C14.1968 26.8879 14.6686 26.6913 15.0153 26.3418L19.243 22.0957L23.4707 26.3418C23.8173 26.6913 24.2892 26.8879 24.7814 26.8879C25.2737 26.8879 25.7456 26.6913 26.0922 26.3418C26.4417 25.9952 26.6383 25.5233 26.6383 25.0311C26.6383 24.5388 26.4417 24.0669 26.0922 23.7203L21.8461 19.4926L26.0922 15.2649C26.4417 14.9183 26.6383 14.4464 26.6383 13.9541C26.6383 13.4619 26.4417 12.99 26.0922 12.6434ZM32.2978 6.44026C27.6626 1.64106 20.7985 -0.283666 14.3438 1.40585C7.88913 3.09537 2.8483 8.1362 1.15878 14.5909C-0.530737 21.0456 1.39399 27.9097 6.19319 32.5449C10.8284 37.3441 17.6925 39.2688 24.1472 37.5793C30.6019 35.8898 35.6427 30.8489 37.3322 24.3942C39.0217 17.9395 37.097 11.0755 32.2978 6.44026ZM29.6945 29.9418C24.7152 34.9266 16.9082 35.7002 11.0475 31.7894C5.1868 27.8786 2.90462 20.3726 5.59652 13.8614C8.28842 7.35023 15.2048 3.64715 22.1161 5.01666C29.0274 6.38617 34.009 12.4469 34.0145 19.4926C34.0278 23.4128 32.4722 27.1755 29.6945 29.9418Z" fill="#3E3E3E"/>
</svg>
