<svg width="26" height="25" viewBox="0 0 26 25" fill="none" xmlns="http://www.w3.org/2000/svg">
<path d="M13.0006 2.16798C16.217 2.16798 16.5978 2.18208 17.8627 2.23851C19.0383 2.29023 19.6731 2.48773 20.0963 2.65231C20.6559 2.86861 21.0603 3.13194 21.4788 3.55043C21.902 3.97364 22.1606 4.37333 22.3769 4.93289C22.5415 5.35609 22.739 5.9956 22.7907 7.16646C22.8471 8.43606 22.8612 8.81694 22.8612 12.0286C22.8612 15.2449 22.8471 15.6258 22.7907 16.8907C22.739 18.0662 22.5415 18.7011 22.3769 19.1243C22.1606 19.6838 21.8973 20.0882 21.4788 20.5067C21.0556 20.9299 20.6559 21.1885 20.0963 21.4048C19.6731 21.5694 19.0336 21.7669 17.8627 21.8186C16.5931 21.8751 16.2123 21.8892 13.0006 21.8892C9.78429 21.8892 9.40341 21.8751 8.13851 21.8186C6.96295 21.7669 6.32814 21.5694 5.90494 21.4048C5.34538 21.1885 4.94098 20.9252 4.52249 20.5067C4.09928 20.0835 3.84066 19.6838 3.62436 19.1243C3.45978 18.7011 3.26229 18.0615 3.21056 16.8907C3.15413 15.6211 3.14003 15.2402 3.14003 12.0286C3.14003 8.81224 3.15413 8.43136 3.21056 7.16646C3.26229 5.9909 3.45978 5.35609 3.62436 4.93289C3.84066 4.37333 4.10399 3.96893 4.52249 3.55043C4.94569 3.12723 5.34538 2.86861 5.90494 2.65231C6.32814 2.48773 6.96765 2.29023 8.13851 2.23851C9.40341 2.18208 9.78429 2.16798 13.0006 2.16798ZM13.0006 0.000244141C9.73257 0.000244141 9.32347 0.0143509 8.03976 0.0707777C6.76075 0.127205 5.88143 0.334103 5.11967 0.630344C4.32499 0.940692 3.65257 1.34979 2.98485 2.02221C2.31243 2.68992 1.90334 3.36235 1.59299 4.15232C1.29675 4.91879 1.08985 5.7934 1.03342 7.07241C0.976997 8.36083 0.962891 8.76992 0.962891 12.038C0.962891 15.306 0.976997 15.7151 1.03342 16.9988C1.08985 18.2778 1.29675 19.1572 1.59299 19.9189C1.90334 20.7136 2.31243 21.386 2.98485 22.0537C3.65257 22.7215 4.32499 23.1353 5.11497 23.4409C5.88143 23.7371 6.75605 23.944 8.03506 24.0005C9.31877 24.0569 9.72786 24.071 12.9959 24.071C16.264 24.071 16.6731 24.0569 17.9568 24.0005C19.2358 23.944 20.1151 23.7371 20.8769 23.4409C21.6668 23.1353 22.3393 22.7215 23.007 22.0537C23.6747 21.386 24.0885 20.7136 24.3941 19.9236C24.6904 19.1572 24.8973 18.2826 24.9537 17.0035C25.0101 15.7198 25.0242 15.3107 25.0242 12.0427C25.0242 8.77462 25.0101 8.36553 24.9537 7.08182C24.8973 5.80281 24.6904 4.92349 24.3941 4.16173C24.0979 3.36235 23.6888 2.68992 23.0164 2.02221C22.3487 1.35449 21.6763 0.940692 20.8863 0.635046C20.1198 0.338805 19.2452 0.131907 17.9662 0.07548C16.6778 0.0143509 16.2687 0.000244141 13.0006 0.000244141Z" fill="#EC3397"/>
<path d="M12.9999 5.85455C9.58603 5.85455 6.81641 8.62417 6.81641 12.038C6.81641 15.4518 9.58603 18.2214 12.9999 18.2214C16.4137 18.2214 19.1833 15.4518 19.1833 12.038C19.1833 8.62417 16.4137 5.85455 12.9999 5.85455ZM12.9999 16.049C10.7851 16.049 8.98884 14.2528 8.98884 12.038C8.98884 9.82324 10.7851 8.02699 12.9999 8.02699C15.2146 8.02699 17.0109 9.82324 17.0109 12.038C17.0109 14.2528 15.2146 16.049 12.9999 16.049Z" fill="#EC3397"/>
<path d="M20.8715 5.61003C20.8715 6.40942 20.2226 7.05362 19.428 7.05362C18.6286 7.05362 17.9844 6.40471 17.9844 5.61003C17.9844 4.81065 18.6333 4.16644 19.428 4.16644C20.2226 4.16644 20.8715 4.81535 20.8715 5.61003Z" fill="#EC3397"/>
</svg>
