<svg width="25" height="25" viewBox="0 0 25 25" fill="none" xmlns="http://www.w3.org/2000/svg">
<g clip-path="url(#clip0_1_456)">
<path d="M23.2221 0.000244141H2.70107C2.22971 0.000244141 1.77767 0.187489 1.44437 0.520785C1.11107 0.854082 0.923828 1.30613 0.923828 1.77748V22.2985C0.923828 22.7698 1.11107 23.2219 1.44437 23.5552C1.77767 23.8885 2.22971 24.0757 2.70107 24.0757H23.2221C23.6934 24.0757 24.1455 23.8885 24.4788 23.5552C24.8121 23.2219 24.9993 22.7698 24.9993 22.2985V1.77748C24.9993 1.30613 24.8121 0.854082 24.4788 0.520785C24.1455 0.187489 23.6934 0.000244141 23.2221 0.000244141ZM8.09966 20.5095H4.47998V9.01183H8.09966V20.5095ZM6.28731 7.4185C5.87672 7.41619 5.47601 7.2923 5.13577 7.06247C4.79552 6.83264 4.53098 6.50717 4.37553 6.12714C4.22008 5.74711 4.18069 5.32954 4.26232 4.92714C4.34396 4.52474 4.54298 4.15555 4.83424 3.86614C5.12551 3.57674 5.49598 3.38011 5.89889 3.30105C6.30181 3.222 6.71911 3.26407 7.09813 3.42196C7.47716 3.57984 7.80093 3.84647 8.02856 4.18818C8.2562 4.5299 8.37752 4.93139 8.37719 5.34199C8.38107 5.61688 8.32956 5.88975 8.22573 6.14431C8.1219 6.39887 7.96789 6.62993 7.77287 6.8237C7.57785 7.01748 7.34581 7.17 7.09058 7.27219C6.83536 7.37438 6.56217 7.42414 6.28731 7.4185ZM21.4415 20.5196H17.8235V14.2382C17.8235 12.3857 17.036 11.8139 16.0195 11.8139C14.9461 11.8139 13.8928 12.6231 13.8928 14.285V20.5196H10.2731V9.02019H13.754V10.6135H13.8009C14.1503 9.9063 15.3741 8.69751 17.2416 8.69751C19.2613 8.69751 21.4432 9.89627 21.4432 13.4073L21.4415 20.5196Z" fill="#0A66C2"/>
</g>
<defs>
<clipPath id="clip0_1_456">
<rect width="24.0755" height="24.0755" fill="white" transform="translate(0.923828 0.000244141)"/>
</clipPath>
</defs>
</svg>
